<?xml version="1.0" encoding="utf-8"?>
<!-- Generator: Adobe Illustrator 16.0.0, SVG Export Plug-In . SVG Version: 6.00 Build 0)  -->
<!DOCTYPE svg PUBLIC "-//W3C//DTD SVG 1.1//EN" "http://www.w3.org/Graphics/SVG/1.1/DTD/svg11.dtd">
<svg version="1.1" id="Layer_1" xmlns="http://www.w3.org/2000/svg" xmlns:xlink="http://www.w3.org/1999/xlink" x="0px" y="0px"
	 width="115px" height="27px" viewBox="0 0 115 27" enable-background="new 0 0 115 27" xml:space="preserve">
<g>
	<g>
		<path fill="#E24301" d="M104.385,8.846v1.37h-0.42v-1.37h-0.486V8.492h1.396v0.354H104.385z"/>
		<path fill="#E24301" d="M106.627,10.216l0.011-1.221h-0.01l-0.445,1.221h-0.293l-0.438-1.221h-0.006l0.012,1.221h-0.397V8.492h0.6
			l0.388,1.104h0.011l0.376-1.104h0.601v1.724H106.627z"/>
	</g>
	<g>
		<path fill="#E24301" d="M45.422,18.713c-0.63,0.953-1.41,1.637-2.334,2.051c-0.928,0.413-1.948,0.62-3.063,0.62
			c-0.953,0-1.815-0.161-2.591-0.486c-0.772-0.322-1.438-0.776-1.994-1.361c-0.559-0.583-0.984-1.277-1.282-2.079
			c-0.297-0.8-0.445-1.685-0.445-2.656c0-0.936,0.153-1.799,0.461-2.59c0.305-0.79,0.736-1.478,1.293-2.064
			c0.558-0.583,1.214-1.042,1.968-1.376c0.761-0.33,1.594-0.497,2.512-0.497c0.951,0,1.793,0.167,2.522,0.497
			c0.729,0.334,1.339,0.775,1.834,1.323c0.494,0.549,0.867,1.174,1.12,1.876c0.249,0.7,0.376,1.411,0.376,2.131v1.132H35.33
			c0,0.342,0.071,0.776,0.203,1.308c0.136,0.532,0.382,1.049,0.742,1.551c0.36,0.505,0.841,0.938,1.442,1.294
			c0.604,0.361,1.382,0.54,2.333,0.54c0.829,0,1.628-0.198,2.403-0.592c0.771-0.396,1.365-0.936,1.78-1.619L45.422,18.713z
			 M44.18,13.776c0-0.557-0.114-1.078-0.337-1.564c-0.225-0.485-0.531-0.913-0.919-1.281c-0.387-0.369-0.845-0.661-1.376-0.877
			c-0.53-0.216-1.093-0.323-1.685-0.323c-0.882,0-1.616,0.18-2.199,0.539c-0.585,0.36-1.044,0.774-1.389,1.242
			c-0.341,0.468-0.585,0.921-0.728,1.361c-0.146,0.442-0.218,0.742-0.218,0.903H44.18z"/>
		<path fill="#E24301" d="M47.258,12.104c0-0.233-0.013-0.516-0.029-0.851c-0.02-0.332-0.032-0.668-0.043-1.01
			c-0.008-0.342-0.022-0.66-0.039-0.958c-0.016-0.297-0.026-0.526-0.026-0.688h1.618c0.019,0.468,0.03,0.917,0.041,1.349
			c0.007,0.432,0.029,0.71,0.066,0.836h0.082c0.322-0.684,0.863-1.273,1.618-1.767c0.754-0.494,1.639-0.74,2.644-0.74
			c0.825,0,1.585,0.21,2.267,0.634c0.684,0.421,1.176,1.109,1.482,2.063c0.398-0.934,0.985-1.617,1.77-2.05
			c0.78-0.432,1.603-0.647,2.466-0.647c0.971,0,1.762,0.153,2.375,0.458c0.611,0.305,1.092,0.706,1.442,1.2
			c0.349,0.494,0.595,1.065,0.729,1.712c0.135,0.647,0.202,1.314,0.202,1.998v7.418h-1.619v-7.338c0-0.504-0.045-0.993-0.133-1.471
			c-0.092-0.476-0.25-0.903-0.475-1.28c-0.223-0.379-0.539-0.678-0.945-0.905c-0.402-0.223-0.928-0.335-1.576-0.335
			c-0.756,0-1.374,0.14-1.86,0.417c-0.485,0.279-0.868,0.634-1.146,1.066c-0.279,0.432-0.477,0.9-0.596,1.404
			c-0.116,0.502-0.175,0.979-0.175,1.428v7.015h-1.617v-7.5c0-1.15-0.213-2.077-0.635-2.778c-0.42-0.702-1.075-1.051-1.955-1.051
			c-0.595,0-1.156,0.104-1.688,0.31c-0.529,0.207-0.988,0.521-1.373,0.943c-0.387,0.424-0.694,0.954-0.916,1.593
			c-0.228,0.638-0.339,1.387-0.339,2.25v6.233h-1.616V12.104z"/>
		<path fill="#E24301" d="M67.728,0.667h1.623v10.115h0.051c0.254-0.431,0.566-0.805,0.943-1.12
			c0.377-0.313,0.787-0.574,1.229-0.781c0.443-0.208,0.902-0.361,1.389-0.46c0.484-0.098,0.961-0.147,1.43-0.147
			c0.953,0,1.83,0.162,2.629,0.484c0.802,0.324,1.496,0.778,2.08,1.362c0.584,0.584,1.039,1.278,1.36,2.078
			c0.324,0.8,0.487,1.676,0.487,2.629c0,0.954-0.163,1.83-0.487,2.63c-0.321,0.801-0.776,1.495-1.36,2.079
			c-0.584,0.584-1.278,1.039-2.08,1.361c-0.799,0.325-1.676,0.486-2.629,0.486c-0.469,0-0.945-0.048-1.43-0.147
			c-0.486-0.099-0.945-0.251-1.389-0.458c-0.441-0.208-0.852-0.468-1.229-0.783c-0.377-0.315-0.689-0.687-0.943-1.119h-0.051v2.185
			h-1.623V0.667z M69.185,14.828c0,0.702,0.138,1.363,0.405,1.983c0.27,0.62,0.64,1.162,1.106,1.619
			c0.466,0.459,1.016,0.824,1.647,1.093c0.628,0.269,1.31,0.404,2.048,0.404c0.755,0,1.438-0.135,2.05-0.404
			c0.61-0.269,1.136-0.633,1.567-1.093c0.432-0.457,0.76-0.999,0.983-1.619c0.225-0.621,0.337-1.282,0.337-1.983
			c0-0.699-0.112-1.361-0.337-1.981c-0.224-0.621-0.552-1.161-0.983-1.619c-0.432-0.459-0.957-0.822-1.567-1.093
			c-0.612-0.27-1.295-0.404-2.05-0.404c-0.738,0-1.42,0.134-2.048,0.404c-0.632,0.271-1.182,0.634-1.647,1.093
			c-0.467,0.458-0.837,0.998-1.106,1.619C69.322,13.467,69.185,14.129,69.185,14.828z"/>
		<path fill="#E24301" d="M93.652,18.713c-0.628,0.953-1.407,1.637-2.335,2.051c-0.923,0.413-1.944,0.62-3.06,0.62
			c-0.955,0-1.817-0.161-2.589-0.486c-0.775-0.322-1.439-0.776-1.997-1.361c-0.558-0.583-0.985-1.277-1.279-2.079
			c-0.298-0.8-0.447-1.685-0.447-2.656c0-0.936,0.152-1.799,0.457-2.59c0.306-0.79,0.737-1.478,1.295-2.064
			c0.559-0.583,1.218-1.042,1.972-1.376c0.753-0.33,1.59-0.497,2.508-0.497c0.954,0,1.794,0.167,2.524,0.497
			c0.726,0.334,1.336,0.775,1.832,1.323c0.494,0.549,0.867,1.174,1.119,1.876c0.252,0.7,0.38,1.411,0.38,2.131v1.132H83.566
			c0,0.342,0.065,0.776,0.202,1.308c0.132,0.532,0.381,1.049,0.74,1.551c0.357,0.505,0.84,0.938,1.444,1.294
			c0.602,0.361,1.377,0.54,2.331,0.54c0.826,0,1.63-0.198,2.399-0.592c0.777-0.396,1.368-0.936,1.782-1.619L93.652,18.713z
			 M92.411,13.776c0-0.557-0.109-1.078-0.335-1.564c-0.228-0.485-0.532-0.913-0.915-1.281c-0.392-0.369-0.85-0.661-1.378-0.877
			c-0.53-0.216-1.094-0.323-1.688-0.323c-0.881,0-1.614,0.18-2.198,0.539c-0.584,0.36-1.049,0.774-1.388,1.242
			c-0.343,0.468-0.584,0.921-0.729,1.361c-0.144,0.442-0.213,0.742-0.213,0.903H92.411z"/>
		<path fill="#E24301" d="M95.485,12.104c0-0.233-0.007-0.516-0.026-0.851c-0.017-0.332-0.031-0.668-0.039-1.01
			c-0.01-0.342-0.022-0.66-0.041-0.958c-0.017-0.297-0.027-0.526-0.027-0.688h1.62c0.018,0.468,0.03,0.917,0.039,1.349
			c0.012,0.432,0.032,0.71,0.068,0.836c0.413-0.736,0.941-1.338,1.593-1.808c0.645-0.467,1.437-0.7,2.371-0.7
			c0.163,0,0.322,0.013,0.476,0.04c0.152,0.026,0.308,0.06,0.469,0.094l-0.187,1.593c-0.218-0.074-0.426-0.109-0.622-0.109
			c-0.698,0-1.307,0.112-1.818,0.338c-0.516,0.224-0.937,0.534-1.268,0.929c-0.334,0.396-0.583,0.86-0.743,1.39
			c-0.164,0.53-0.243,1.102-0.243,1.713v6.798h-1.621V12.104z"/>
	</g>
	<g>
		<polygon fill="#E24301" points="74.66,0.73 74.66,2.861 72.099,2.861 72.099,0.73 71.306,0.73 71.306,5.962 72.099,5.962 
			72.099,3.612 74.66,3.612 74.66,5.962 75.454,5.962 75.454,0.73 		"/>
		<path fill="#E24301" d="M77.675,2.409c-1.056,0-1.875,0.814-1.875,1.855c0,1.037,0.819,1.854,1.875,1.854
			c1.047,0,1.873-0.816,1.873-1.854C79.548,3.223,78.722,2.409,77.675,2.409z M77.675,5.411c-0.651,0-1.086-0.461-1.086-1.146
			c0-0.688,0.435-1.149,1.086-1.149c0.642,0,1.078,0.462,1.078,1.149C78.753,4.95,78.316,5.411,77.675,5.411z"/>
		<path fill="#E24301" d="M80.939,2.495V1.525h-0.75v0.969h-0.63V3.16h0.63v1.611c0,0.494,0.176,1.322,1.352,1.322
			c0.14,0,0.234-0.013,0.24-0.014l0.042-0.007v-0.68l-0.059,0.014c0,0-0.06,0.011-0.147,0.011c-0.254,0-0.678-0.093-0.678-0.72V3.16
			h0.885c0.019-0.233,0.057-0.454,0.121-0.665H80.939z"/>
		<path fill="#55565A" d="M86.767,5.179c-0.487,0.664-1.157,0.934-1.91,0.934c-1.565,0-2.655-1.132-2.655-2.699
			c0-1.565,1.09-2.698,2.655-2.698c0.695,0,1.323,0.234,1.769,0.807l-0.39,0.325c-0.319-0.477-0.863-0.695-1.379-0.695
			c-1.338,0-2.175,0.985-2.175,2.261c0,1.276,0.837,2.265,2.175,2.265c0.516,0,1.151-0.247,1.515-0.8L86.767,5.179z"/>
		<path fill="#55565A" d="M86.767,5.179c-0.487,0.664-1.157,0.934-1.91,0.934c-1.565,0-2.655-1.132-2.655-2.699
			c0-1.565,1.09-2.698,2.655-2.698c0.695,0,1.323,0.234,1.769,0.807l-0.39,0.325c-0.319-0.477-0.863-0.695-1.379-0.695
			c-1.338,0-2.175,0.985-2.175,2.261c0,1.276,0.837,2.265,2.175,2.265c0.516,0,1.151-0.247,1.515-0.8L86.767,5.179z"/>
		<path fill="#55565A" d="M87.056,0.5h0.435v2.719h0.016c0.177-0.369,0.604-0.675,1.147-0.675c1.042,0,1.274,0.713,1.274,1.443V5.98
			h-0.434V4.009c0-0.544-0.154-1.072-0.841-1.072c-0.644,0-1.163,0.449-1.163,1.371V5.98h-0.435V0.5z"/>
		<path fill="#55565A" d="M93.4,0.5h0.435v5.48H93.4V0.5z"/>
		<path fill="#55565A" d="M94.283,0.5h0.435v3.652l1.651-1.513h0.64l-1.728,1.53l1.93,1.812h-0.658l-1.835-1.767V5.98h-0.435V0.5z"
			/>
		<g>
			<path fill="#55565A" d="M92.971,3.755c0-0.849-0.528-1.211-1.338-1.211c-0.438,0-0.955,0.167-1.278,0.473l0.251,0.295
				c0.303-0.254,0.636-0.375,1.027-0.375c0.536,0,0.945,0.23,0.945,0.812V3.95h-0.512c-0.659,0-1.855,0.102-1.855,1.124
				c0,0.714,0.609,0.994,1.182,0.994c0.565,0,0.928-0.201,1.175-0.629l0,0V5.98h0.06h0.344V3.755z M91.407,5.678
				c-0.365,0-0.761-0.211-0.761-0.625c0-0.572,0.724-0.753,1.452-0.753h0.479v0.224C92.578,5.083,92.335,5.678,91.407,5.678z"/>
		</g>
	</g>
	<g>
		<path fill="#E24301" d="M21.863,15.58c-0.478,1.169-1.81,1.736-2.978,1.258c-1.171-0.473-1.735-1.807-1.259-2.976
			c0.476-1.169,1.807-1.733,2.978-1.258S22.338,14.411,21.863,15.58z"/>
		<circle fill="#1F355E" cx="15.93" cy="13.172" r="0.991"/>
		<path fill="#1F355E" d="M14.258,12.493c-0.131,0.32-0.491,0.473-0.813,0.344c-0.316-0.129-0.473-0.494-0.341-0.814
			c0.129-0.318,0.491-0.471,0.813-0.342C14.235,11.81,14.387,12.174,14.258,12.493z"/>
		<path fill="#1F355E" d="M10.289,12.626c-0.035,0.166-0.201,0.272-0.366,0.233c-0.167-0.037-0.271-0.203-0.238-0.368
			c0.039-0.167,0.201-0.272,0.372-0.236C10.221,12.294,10.329,12.458,10.289,12.626z"/>
		<circle fill="#1F355E" cx="17.197" cy="8.692" r="0.624"/>
		<path fill="#1F355E" d="M14.54,6.553c-0.141,0.094-0.336,0.05-0.426-0.095c-0.093-0.143-0.05-0.335,0.093-0.428
			c0.146-0.09,0.336-0.048,0.427,0.097C14.729,6.271,14.686,6.462,14.54,6.553z"/>
		<path fill="#1F355E" d="M20.923,11.826c-0.508-0.207-0.756-0.783-0.55-1.291c0.207-0.506,0.784-0.75,1.292-0.544
			c0.507,0.203,0.753,0.782,0.547,1.29C22.006,11.788,21.426,12.032,20.923,11.826z"/>
		<path fill="#1F355E" d="M21.97,9.235c-0.316-0.13-0.473-0.494-0.343-0.814c0.131-0.321,0.494-0.473,0.815-0.343
			c0.315,0.128,0.47,0.492,0.34,0.813C22.655,9.212,22.293,9.366,21.97,9.235z"/>
		<path fill="#1F355E" d="M21.841,5.268c-0.168-0.038-0.275-0.203-0.233-0.371c0.032-0.165,0.201-0.272,0.366-0.235
			c0.171,0.036,0.275,0.201,0.235,0.37C22.172,5.199,22.008,5.304,21.841,5.268z"/>
		<path fill="#1F355E" d="M22.929,13.376c-0.146-0.337,0.014-0.723,0.352-0.867c0.337-0.142,0.721,0.017,0.866,0.351
			c0.14,0.339-0.019,0.725-0.354,0.866C23.458,13.869,23.069,13.711,22.929,13.376z"/>
		<circle fill="#1F355E" cx="18.143" cy="10.93" r="0.662"/>
		<path fill="#1F355E" d="M16.561,16.065c0.145,0.336-0.013,0.724-0.352,0.865c-0.334,0.144-0.72-0.014-0.866-0.351
			c-0.14-0.337,0.02-0.724,0.354-0.866S16.422,15.729,16.561,16.065z"/>
		<circle fill="#1F355E" cx="21.346" cy="18.51" r="0.66"/>
		<path fill="#1F355E" d="M25.195,12.416c-0.132-0.318,0.019-0.685,0.334-0.819c0.319-0.134,0.685,0.016,0.82,0.334
			c0.132,0.315-0.016,0.683-0.334,0.816C25.701,12.883,25.333,12.733,25.195,12.416z"/>
		<path fill="#1F355E" d="M27.911,9.517C27.82,9.373,27.86,9.183,28.007,9.09c0.143-0.091,0.336-0.05,0.429,0.095
			c0.089,0.145,0.048,0.335-0.097,0.426C28.192,9.703,28.004,9.661,27.911,9.517z"/>
		<path fill="#1F355E" d="M22.642,15.896c0.202-0.507,0.779-0.75,1.289-0.546c0.506,0.208,0.752,0.787,0.546,1.294
			c-0.205,0.505-0.784,0.75-1.289,0.545C22.68,16.982,22.433,16.402,22.642,15.896z"/>
		<path fill="#1F355E" d="M25.23,16.947c0.13-0.318,0.496-0.474,0.814-0.344c0.317,0.129,0.472,0.496,0.343,0.814
			c-0.128,0.317-0.496,0.472-0.812,0.343C25.253,17.63,25.1,17.267,25.23,16.947z"/>
		<path fill="#1F355E" d="M29.2,16.817c0.035-0.166,0.202-0.272,0.364-0.236c0.172,0.037,0.276,0.203,0.236,0.37
			c-0.036,0.167-0.201,0.271-0.366,0.234C29.267,17.148,29.159,16.984,29.2,16.817z"/>
		<path fill="#1F355E" d="M22.048,20.173c0.32-0.133,0.684,0.014,0.82,0.333c0.133,0.317-0.017,0.687-0.333,0.819
			c-0.314,0.134-0.684-0.014-0.82-0.333C21.586,20.676,21.732,20.31,22.048,20.173z"/>
		<path fill="#1F355E" d="M24.945,22.889c0.147-0.094,0.339-0.052,0.427,0.093c0.096,0.145,0.052,0.336-0.093,0.428
			c-0.144,0.091-0.337,0.05-0.425-0.096C24.763,23.17,24.803,22.979,24.945,22.889z"/>
		<circle fill="#1F355E" cx="24.3" cy="19.098" r="0.877"/>
		<path fill="#1F355E" d="M23.714,18.445c0.362-0.323,0.916-0.292,1.238,0.068c0.323,0.358,0.293,0.911-0.065,1.235
			c-0.361,0.324-0.912,0.296-1.241-0.066C23.323,19.322,23.353,18.77,23.714,18.445z"/>
		<circle fill="#1F355E" cx="25.736" cy="20.696" r="0.552"/>
		<path fill="#1F355E" d="M27.592,22.761c0.115-0.101,0.286-0.092,0.389,0.02c0.099,0.111,0.087,0.286-0.021,0.387
			c-0.113,0.102-0.286,0.091-0.389-0.024C27.47,23.035,27.479,22.861,27.592,22.761z"/>
		<path fill="#1F355E" d="M25.188,14.548c0.025-0.483,0.437-0.853,0.92-0.829c0.482,0.028,0.854,0.439,0.827,0.92
			c-0.025,0.485-0.44,0.857-0.923,0.83C25.529,15.446,25.16,15.032,25.188,14.548z"/>
		<path fill="#1F355E" d="M25.188,14.548c0.025-0.483,0.438-0.855,0.921-0.83c0.482,0.028,0.854,0.44,0.827,0.921
			c-0.025,0.485-0.438,0.854-0.923,0.83C25.529,15.446,25.16,15.031,25.188,14.548z"/>
		<path fill="#1F355E" d="M27.657,14.68c0.013-0.305,0.275-0.539,0.583-0.523c0.3,0.018,0.534,0.277,0.516,0.582
			c-0.015,0.304-0.275,0.539-0.58,0.521C27.874,15.246,27.638,14.984,27.657,14.68z"/>
		<path fill="#1F355E" d="M30.979,14.855c0.007-0.148,0.135-0.266,0.285-0.257c0.15,0.007,0.269,0.138,0.261,0.289
			c-0.009,0.15-0.136,0.265-0.288,0.258C31.086,15.137,30.969,15.008,30.979,14.855z"/>
		<circle fill="#1F355E" cx="24.122" cy="10.166" r="0.877"/>
		<path fill="#1F355E" d="M23.469,10.752c-0.321-0.36-0.292-0.916,0.068-1.239c0.359-0.323,0.914-0.294,1.233,0.066
			c0.325,0.36,0.297,0.915-0.062,1.239C24.35,11.142,23.793,11.11,23.469,10.752z"/>
		<path fill="#1F355E" d="M25.31,9.101c-0.204-0.229-0.187-0.579,0.039-0.783c0.228-0.202,0.581-0.182,0.784,0.044
			c0.203,0.225,0.181,0.575-0.045,0.778C25.861,9.344,25.514,9.327,25.31,9.101z"/>
		<path fill="#1F355E" d="M27.784,6.873c-0.102-0.112-0.09-0.285,0.022-0.386c0.111-0.102,0.282-0.09,0.384,0.021
			c0.103,0.109,0.095,0.284-0.021,0.387C28.061,6.994,27.886,6.986,27.784,6.873z"/>
		<path fill="#1F355E" d="M22.675,7.23c-0.089-0.097-0.078-0.244,0.016-0.328c0.096-0.086,0.244-0.079,0.331,0.015
			c0.088,0.097,0.077,0.246-0.018,0.332C22.909,7.336,22.758,7.325,22.675,7.23z"/>
		<path fill="#1F355E" d="M23.899,4.209c-0.083-0.097-0.076-0.245,0.021-0.329c0.097-0.087,0.242-0.079,0.331,0.017
			c0.085,0.095,0.079,0.243-0.021,0.331C24.133,4.312,23.988,4.305,23.899,4.209z"/>
		<path fill="#1F355E" d="M15.249,4.349c-0.127-0.008-0.226-0.118-0.218-0.248c0.006-0.129,0.116-0.226,0.243-0.218
			c0.131,0.004,0.231,0.115,0.222,0.245C15.491,4.256,15.38,4.356,15.249,4.349z"/>
		<path fill="#1F355E" d="M9.23,10.565c-0.092,0.085-0.238,0.077-0.328-0.018c-0.086-0.097-0.078-0.245,0.016-0.332
			c0.101-0.085,0.247-0.078,0.333,0.019C9.337,10.331,9.329,10.478,9.23,10.565z"/>
		<path fill="#1F355E" d="M9.374,19.218c-0.008,0.127-0.119,0.224-0.248,0.218c-0.13-0.006-0.227-0.118-0.22-0.248
			c0.008-0.127,0.115-0.228,0.244-0.221C9.278,18.975,9.38,19.086,9.374,19.218z"/>
		<path fill="#1F355E" d="M15.589,25.232c0.083,0.097,0.079,0.243-0.019,0.329c-0.096,0.087-0.243,0.079-0.33-0.018
			c-0.085-0.094-0.076-0.242,0.021-0.33C15.354,25.128,15.506,25.137,15.589,25.232z"/>
		<path fill="#1F355E" d="M24.239,25.093c0.127,0.006,0.227,0.118,0.219,0.247c-0.004,0.127-0.117,0.226-0.244,0.22
			c-0.131-0.005-0.229-0.116-0.221-0.245C24.001,25.184,24.108,25.085,24.239,25.093z"/>
		<path fill="#1F355E" d="M30.256,18.876c0.095-0.086,0.245-0.078,0.33,0.018c0.092,0.097,0.077,0.246-0.016,0.332
			c-0.095,0.085-0.246,0.078-0.33-0.018C30.151,19.11,30.159,18.963,30.256,18.876z"/>
		<path fill="#1F355E" d="M30.116,10.227c0.006-0.13,0.115-0.228,0.247-0.221c0.128,0.006,0.226,0.118,0.219,0.248
			c-0.005,0.127-0.115,0.227-0.245,0.219C30.208,10.466,30.109,10.356,30.116,10.227z"/>
		<circle fill="#1F355E" cx="16.532" cy="7.12" r="0.234"/>
		<circle fill="#1F355E" cx="12.098" cy="11.618" r="0.235"/>
		<path fill="#1F355E" d="M12.378,17.946c-0.007,0.128-0.118,0.227-0.244,0.22c-0.132-0.006-0.229-0.115-0.22-0.246
			c0.002-0.129,0.115-0.229,0.245-0.222C12.287,17.707,12.387,17.816,12.378,17.946z"/>
		<path fill="#1F355E" d="M16.814,22.209c0.088,0.096,0.078,0.244-0.016,0.329c-0.096,0.087-0.243,0.08-0.332-0.016
			c-0.084-0.096-0.077-0.245,0.018-0.332C16.581,22.106,16.731,22.115,16.814,22.209z"/>
		<path fill="#1F355E" d="M22.97,22.087c0.129,0.006,0.229,0.116,0.219,0.246c-0.004,0.13-0.115,0.227-0.245,0.222
			c-0.128-0.007-0.229-0.12-0.221-0.249C22.731,22.179,22.84,22.08,22.97,22.087z"/>
		<path fill="#1F355E" d="M27.234,17.649c0.095-0.087,0.245-0.078,0.329,0.018c0.089,0.095,0.077,0.243-0.016,0.332
			c-0.094,0.083-0.246,0.078-0.332-0.019C27.129,17.884,27.138,17.735,27.234,17.649z"/>
		<circle fill="#1F355E" cx="27.346" cy="11.508" r="0.235"/>
		<path fill="#1F355E" d="M19.575,9.279c-0.487-0.025-0.856-0.438-0.831-0.923c0.025-0.482,0.438-0.853,0.92-0.828
			c0.486,0.026,0.858,0.44,0.831,0.923C20.471,8.936,20.058,9.305,19.575,9.279z"/>
		<circle fill="#1F355E" cx="19.619" cy="8.404" r="0.876"/>
		<path fill="#1F355E" d="M19.704,6.81c-0.303-0.016-0.538-0.276-0.521-0.578c0.017-0.305,0.273-0.541,0.578-0.523
			c0.307,0.016,0.541,0.275,0.526,0.58C20.268,6.593,20.01,6.829,19.704,6.81z"/>
		<path fill="#1F355E" d="M19.883,3.49c-0.15-0.012-0.27-0.14-0.259-0.292c0.008-0.15,0.136-0.267,0.288-0.254
			c0.149,0.004,0.267,0.133,0.256,0.285C20.162,3.377,20.032,3.497,19.883,3.49z"/>
		<path fill="#1F355E" d="M15.775,10.993c-0.357,0.328-0.914,0.295-1.236-0.064c-0.321-0.361-0.293-0.913,0.066-1.237
			c0.357-0.324,0.914-0.294,1.238,0.064C16.166,10.117,16.134,10.671,15.775,10.993z"/>
		<path fill="#1F355E" d="M15.773,10.993c-0.355,0.328-0.912,0.295-1.237-0.063c-0.319-0.361-0.29-0.914,0.069-1.238
			c0.357-0.324,0.913-0.294,1.237,0.066C16.166,10.117,16.134,10.673,15.773,10.993z"/>
		<path fill="#1F355E" d="M14.123,9.156c-0.229,0.203-0.576,0.187-0.78-0.042c-0.204-0.228-0.185-0.577,0.044-0.78
			c0.225-0.204,0.573-0.186,0.779,0.043C14.37,8.603,14.352,8.951,14.123,9.156z"/>
		<path fill="#1F355E" d="M11.897,6.681c-0.11,0.1-0.286,0.091-0.388-0.02c-0.101-0.111-0.089-0.287,0.023-0.389
			c0.11-0.1,0.282-0.09,0.386,0.024C12.019,6.407,12.012,6.58,11.897,6.681z"/>
		<circle fill="#1F355E" cx="13.428" cy="14.845" r="0.876"/>
		<path fill="#1F355E" d="M14.303,14.893c-0.027,0.483-0.436,0.855-0.917,0.83c-0.485-0.026-0.857-0.438-0.833-0.92
			c0.024-0.484,0.439-0.854,0.924-0.83C13.957,13.996,14.329,14.409,14.303,14.893z"/>
		<path fill="#1F355E" d="M11.836,14.764c-0.019,0.303-0.277,0.535-0.582,0.521c-0.305-0.02-0.537-0.279-0.52-0.582
			c0.012-0.305,0.273-0.539,0.578-0.523C11.617,14.197,11.851,14.456,11.836,14.764z"/>
		<path fill="#1F355E" d="M8.512,14.586c-0.008,0.149-0.138,0.265-0.287,0.256c-0.15-0.008-0.268-0.136-0.259-0.288
			c0.008-0.149,0.137-0.268,0.29-0.258C8.403,14.307,8.518,14.434,8.512,14.586z"/>
		<path fill="#1F355E" d="M16.019,18.689c0.323,0.361,0.293,0.913-0.067,1.239c-0.358,0.32-0.914,0.294-1.235-0.069
			c-0.324-0.359-0.295-0.915,0.067-1.235C15.141,18.298,15.697,18.331,16.019,18.689z"/>
		<circle fill="#1F355E" cx="15.368" cy="19.275" r="0.876"/>
		<path fill="#1F355E" d="M14.179,20.342c0.204,0.228,0.188,0.577-0.039,0.782c-0.228,0.203-0.576,0.182-0.78-0.045
			c-0.202-0.224-0.187-0.575,0.042-0.779C13.627,20.097,13.977,20.115,14.179,20.342z"/>
		<circle fill="#1F355E" cx="11.503" cy="22.75" r="0.274"/>
		<path fill="#1F355E" d="M19.914,20.16c0.484,0.027,0.859,0.439,0.831,0.925c-0.025,0.482-0.438,0.852-0.923,0.826
			c-0.484-0.025-0.854-0.439-0.827-0.921C19.022,20.506,19.432,20.135,19.914,20.16z"/>
		<path fill="#1F355E" d="M19.917,20.162c0.481,0.025,0.856,0.438,0.831,0.922s-0.44,0.853-0.923,0.828
			c-0.484-0.025-0.853-0.438-0.827-0.924C19.022,20.506,19.434,20.135,19.917,20.162z"/>
		<path fill="#1F355E" d="M19.786,22.631c0.304,0.017,0.539,0.276,0.521,0.579c-0.017,0.305-0.276,0.542-0.579,0.522
			c-0.306-0.017-0.541-0.274-0.524-0.58C19.224,22.848,19.48,22.614,19.786,22.631z"/>
		<path fill="#1F355E" d="M19.607,25.952c0.152,0.01,0.268,0.138,0.261,0.29c-0.008,0.152-0.137,0.266-0.288,0.258
			c-0.15-0.005-0.269-0.135-0.258-0.289C19.328,26.063,19.456,25.946,19.607,25.952z"/>
		<circle fill="#1F355E" cx="18.196" cy="18.534" r="0.991"/>
		<path fill="#1F355E" d="M17.519,20.205c0.318,0.133,0.472,0.496,0.343,0.816c-0.131,0.319-0.492,0.472-0.815,0.344
			c-0.317-0.131-0.47-0.495-0.341-0.814C16.835,20.23,17.196,20.077,17.519,20.205z"/>
		<circle fill="#1F355E" cx="17.583" cy="24.478" r="0.31"/>
		<circle fill="#1F355E" cx="13.714" cy="17.267" r="0.625"/>
		<path fill="#1F355E" d="M11.579,19.924c0.089,0.145,0.05,0.337-0.097,0.426c-0.144,0.091-0.336,0.051-0.428-0.093
			c-0.09-0.146-0.05-0.336,0.098-0.427C11.296,19.739,11.484,19.779,11.579,19.924z"/>
		<circle fill="#1F355E" cx="11.065" cy="9.766" r="0.309"/>
		<path fill="#1F355E" d="M17.193,5.378c-0.165,0.045-0.336-0.051-0.379-0.216c-0.048-0.164,0.051-0.335,0.217-0.38
			C17.195,4.734,17.365,4.835,17.41,5C17.454,5.165,17.358,5.333,17.193,5.378z"/>
		<path fill="#1F355E" d="M24.545,6.311c-0.147-0.084-0.198-0.273-0.112-0.421c0.082-0.149,0.271-0.203,0.422-0.116
			c0.145,0.084,0.198,0.274,0.111,0.421C24.884,6.347,24.694,6.397,24.545,6.311z"/>
		<path fill="#1F355E" d="M29.085,12.17c-0.044-0.167,0.051-0.336,0.218-0.379c0.165-0.047,0.335,0.048,0.383,0.214
			c0.04,0.167-0.054,0.335-0.221,0.38C29.303,12.429,29.13,12.335,29.085,12.17z"/>
		<path fill="#1F355E" d="M28.152,19.522c0.088-0.15,0.273-0.201,0.42-0.116c0.151,0.083,0.202,0.273,0.118,0.423
			c-0.085,0.148-0.271,0.198-0.423,0.114C28.12,19.859,28.066,19.67,28.152,19.522z"/>
		<path fill="#1F355E" d="M22.299,24.061c0.161-0.042,0.331,0.052,0.376,0.218c0.046,0.164-0.05,0.336-0.218,0.38
			c-0.162,0.045-0.334-0.053-0.38-0.218C22.034,24.279,22.13,24.107,22.299,24.061z"/>
		<path fill="#1F355E" d="M14.941,23.13c0.148,0.083,0.199,0.271,0.118,0.422c-0.087,0.149-0.276,0.2-0.426,0.115
			c-0.148-0.086-0.198-0.274-0.112-0.423C14.605,23.095,14.794,23.044,14.941,23.13z"/>
		<path fill="#1F355E" d="M10.401,17.271c0.046,0.165-0.051,0.336-0.214,0.378c-0.167,0.047-0.335-0.05-0.381-0.214
			c-0.048-0.166,0.052-0.335,0.217-0.381C10.188,17.011,10.358,17.107,10.401,17.271z"/>
	</g>
</g>
</svg>
