<?xml version="1.0" encoding="utf-8"?>
<!-- Generator: Adobe Illustrator 16.0.0, SVG Export Plug-In . SVG Version: 6.00 Build 0)  -->
<!DOCTYPE svg PUBLIC "-//W3C//DTD SVG 1.1//EN" "http://www.w3.org/Graphics/SVG/1.1/DTD/svg11.dtd">
<svg version="1.1" id="Layer_1" xmlns="http://www.w3.org/2000/svg" class="ic-icon-svg ic-icon-svg--globe" xmlns:xlink="http://www.w3.org/1999/xlink" x="0px" y="0px"
	 width="1024px" height="1024px" viewBox="0 0 1024 1024" enable-background="new 0 0 1024 1024" xml:space="preserve">
<title>icon-calendar</title>
<path d="M558.312,353.669c-1.453-2.685,14.131-4.138,16.955-4.138C578.257,349.875,567.114,368.142,558.312,353.669z
	 M469.338,226.766c2.884-4.325,3.469,15.03-3.512,21.86c3.154,2.527,6.773,3.685,10.859,3.472c0.262,0.845-15.077,4.19-12.556,7.024
	c6.922,9.922,32.961-11.759,32.709-11.932c-12.497-8.631-8.468-29.24-12.626-35.523C476.146,199.93,470.901,222.901,469.338,226.766
	z M1007.064,512c0,270.327-225.737,496.065-496.064,496.065c-270.341,0-496.065-225.724-496.065-496.065S240.659,15.935,511,15.935
	C781.327,15.935,1007.064,241.673,1007.064,512z M663.518,290.006c-1.102-27.655-23.519,21.947-23.374,21.719
	c-10.238,17.126,29.688,1.695,28.717,1.943c8.088-2.073,46.438,12.632,47.415-3.999c-0.041,0.694-47.637-33.655-27.322-36.073
	C674.882,275.331,674.667,291.802,663.518,290.006z M923.822,512c0-29.771,3.82-139.94-48.919-120.389
	c-17.521,6.496-37.31,0.35-48.548,3.593c-19.326,5.577-31.795-19.852-42.857-15.819c-7.986,2.834,16.927,49.021,37.564,39.103
	c58.088-27.918,19.107,54.757,1.726,72.476c-36.519,37.229-37.541,30.041-61.149-6.346c-9.057-13.956-59.808-60.771-58.962-76.003
	c3.973,16.011-11.866-1.897-13.725-6.418c0,25.158,79.469,144.954,108.743,130.102c72.793-36.932,2.99,62.803-13.965,89.488
	c-9.83,15.471-30.944,37.063-30.22,56.809c0.591,16.075,7.825,31.97,6.733,48.095c-1.655,24.491-29.646,26.247-38.256,46.389
	c-10.8,25.26-40.434,65.758-66.378,77.875c-40.631,18.978-61.586,10.317-80.745-25.639c-10.605-20.176-32.909-57.636-22.541-79.487
	c11.879-25.04,10.919-49.517-15.245-69.921c-15.433-11.875-7.322-24.694-4.037-39.887c0-25.982-25.904-7.191-35.452-22.557
	c-12.703-20.443-30.455-3.788-47.852,1.402c-19.317,5.775-56.657-5.167-73.315-16.052c-47.885-31.286-57.966-169.487,8.641-186.562
	c15.528-3.98,19.446-12.448,26.726-25.601c13.567-24.516,45.355-23.737,69.317-26.943c17.684-2.358,36.13-7.896,54.117-5.643
	c11.637,1.457,14.059,27.851,7.185,26.816c18.525,0.98,31.842,19.704,49.363,24.274c21.25,5.542,15.39-31.648,34.524-17.835
	c14.504,10.497,45.032,9.78,61.533,6.125c13.096-2.9,23.393-38.735,10.002-45.466c6.81,6.667-94.953,6.94-54.621-22.506
	c-11.368,8.204-35.072,19.741-43.842,6.842c-3.402-5.004-35.465-44.183-43.708-33.415c-5.153,6.733,36.761,35.911,34.141,37.653
	c-2.434-1.696-4.68-3.616-6.736-5.759c-0.551-0.244-2.159,17.257-3.037,18.687c5.627-9.188-31.774-41.366-40.445-45.324
	c-33.654-15.204-50.963,35.511-71.465,43.761c-11.037,4.441-20.245,10.415-30.304,6.043c-26.107-11.344-2.05-24.288-7.129-45.767
	c5.661,22.93,84.905-26.011,34.437-31.367c30.594,4.4,65.541-39.891,77.61-58.537c14.431,5.958-1.529,25.404,32.909,20.718
	c3.688-0.502,39.673-37.513,39.515-38.037c-1.802-8.883-18.823,2.93-22.849,2.604c-20.029-1.573,2.858-26.826-3.472-32.015
	c-11.907-9.76-20.211,40.671-19.177,47.012c4.518,28.021-28.565-7.733-33.468-4.703c-11.867,7.195-20.821-9.27-15.059-18.368
	c7.432-11.797,25.224-18.439,34.036-31.083c12.229-17.541,53.269-27.959,70.464-9.244c2.586,2.814-18.636,20.565,2.61,18.531
	c14.721-1.409,13.276-22.782,24.717-28.522c42.751-21.447-44.18-35.427-63.043-39.098c-18.164-3.535-53.265-14.543-69.121-0.152
	c-16.516,14.987-32.689,27.98-53.906,36.181c-18.554,7.173-35.336-0.587-53.563,5.665c-15.385,5.275-35.847,24.833-51.815,25.357
	c-11.738,0.795,62.844-71.901,64.834-63.644c-1.769-6.727-64.914,17.839-69.865,19.807c-26.346,10.471-30.945,13.925-34.937,28.611
	c-8.214,30.231-30.293,35.592-54.276,37.599c-12.578,1.052-29.08,22.874-45.04,27.567c-22.91,6.737-40.815,38.875-53.416,57.468
	c-33.019,48.725-55.371,104.467-65.164,162.505c0.257-1.561,20,29.445,20.778,36.917c2.63,25.258,20.016,39.956,32.389,60.617
	c7.237,12.269,17.945,34.328,13.645,49.049c3.674-6.106,27.939,18.188,29.558,19.726c22.348,21.251,62.077,59.946,24.375,87.014
	c-7.808,5.617,3.549,32.123,4.698,38.896c3.436,20.253-5.345,14.067-17.596,21.456c-42.901,26.602,64.915,95.923,81.82,106.404
	c91.731,56.879,204.454,75.473,309.651,51.494C789.355,872.136,922.646,702.073,923.822,512z M448.165,249.212
	c7.678-3.417,11.932-6.985,16.127-13.222C463.758,236.812,440.2,232.769,448.165,249.212z"/>
</svg>
