<?xml version="1.0" encoding="utf-8"?>
<!-- Generator: Adobe Illustrator 16.0.0, SVG Export Plug-In . SVG Version: 6.00 Build 0)  -->
<!DOCTYPE svg PUBLIC "-//W3C//DTD SVG 1.1//EN" "http://www.w3.org/Graphics/SVG/1.1/DTD/svg11.dtd">
<svg version="1.1" id="Layer_1" xmlns="http://www.w3.org/2000/svg" class="ic-icon-svg ic-icon-svg--globe" xmlns:xlink="http://www.w3.org/1999/xlink" x="0px" y="0px"
	 width="1024px" height="1024px" viewBox="0 0 1024 1024" enable-background="new 0 0 1024 1024" xml:space="preserve">
<path d="M560.833,348.583c-1.5-2.771,14.584-4.271,17.5-4.271C581.417,344.667,569.917,363.521,560.833,348.583z M469,217.604
	c2.977-4.464,3.58,15.512-3.625,22.562c3.256,2.608,6.992,3.803,11.208,3.583c0.27,0.872-15.562,4.325-12.958,7.25
	c7.144,10.241,34.02-12.136,33.76-12.315c-12.899-8.908-8.74-30.179-13.031-36.664C476.027,189.905,470.613,213.614,469,217.604z
	 M1024,512c0,279.011-232.989,512-512,512C232.975,1024,0,791.026,0,512S232.975,0,512,0C791.011,0,1024,232.989,1024,512z
	 M669.417,282.875c-1.138-28.543-24.274,22.652-24.125,22.417c-10.568,17.677,30.642,1.749,29.639,2.006
	c8.347-2.14,47.929,13.038,48.937-4.127c-0.042,0.716-49.166-34.737-28.2-37.232C681.146,267.729,680.924,284.729,669.417,282.875z
	 M938.083,512c0-30.727,3.944-144.435-50.49-124.256c-18.083,6.704-38.507,0.361-50.108,3.708
	c-19.947,5.756-32.816-20.489-44.234-16.327c-8.242,2.925,17.471,50.595,38.773,40.357c59.952-28.814,19.72,56.516,1.78,74.804
	c-37.692,38.424-38.747,31.006-63.115-6.55c-9.347-14.404-61.728-62.722-60.855-78.444c4.099,16.525-12.248-1.958-14.166-6.625
	c0,25.968,82.021,149.61,112.236,134.281c75.132-38.118,3.087,64.82-14.413,92.363c-10.145,15.967-31.938,38.254-31.189,58.633
	c0.609,16.591,8.076,32.996,6.949,49.64c-1.708,25.277-30.597,27.09-39.484,47.877c-11.147,26.071-41.732,67.87-68.51,80.377
	c-41.937,19.587-63.565,10.649-83.339-26.462c-10.946-20.823-33.967-59.486-23.266-82.041c12.261-25.844,11.27-51.107-15.734-72.167
	c-15.929-12.256-7.558-25.487-4.167-41.167c0-26.817-26.736-7.423-36.591-23.281c-13.111-21.1-31.433-3.909-49.388,1.448
	c-19.938,5.961-58.477-5.333-75.67-16.567c-49.423-32.292-59.829-174.932,8.917-192.555c16.028-4.109,20.072-12.848,27.584-26.423
	c14.002-25.303,46.812-24.5,71.543-27.809c18.253-2.434,37.292-8.149,55.857-5.824c12.01,1.504,14.509,28.746,7.414,27.678
	c19.12,1.012,32.864,20.337,50.949,25.054c21.933,5.72,15.884-32.665,35.634-18.408c14.971,10.834,46.48,10.094,63.511,6.322
	c13.515-2.993,24.143-39.98,10.322-46.926c7.028,6.881-98.003,7.163-56.375-23.229c-11.733,8.467-36.199,20.375-45.25,7.062
	c-3.512-5.165-36.604-45.602-45.112-34.488c-5.32,6.95,37.941,37.065,35.237,38.863c-2.512-1.751-4.83-3.732-6.954-5.944
	c-0.567-0.252-2.229,17.811-3.134,19.287c5.808-9.483-32.796-42.695-41.745-46.78c-34.735-15.692-52.6,36.652-73.761,45.167
	c-11.391,4.584-20.895,10.749-31.277,6.237c-26.945-11.708-2.114-25.068-7.358-47.237c5.842,23.666,87.633-26.847,35.542-32.375
	c31.577,4.542,67.647-41.172,80.104-60.417c14.894,6.149-1.579,26.22,33.966,21.383c3.805-0.518,40.947-38.718,40.784-39.258
	c-1.859-9.169-19.428,3.024-23.583,2.688c-20.672-1.623,2.951-27.688-3.582-33.043c-12.289-10.074-20.86,41.978-19.793,48.522
	c4.663,28.921-29.482-7.982-34.542-4.854c-12.249,7.426-21.49-9.568-15.542-18.958c7.67-12.176,26.033-19.032,35.13-32.081
	c12.621-18.104,54.978-28.857,72.727-9.541c2.669,2.904-19.234,21.226,2.694,19.126c15.194-1.455,13.703-23.514,25.511-29.438
	c44.125-22.136-45.599-36.565-65.068-40.354c-18.748-3.649-54.975-15.011-71.342-0.157c-17.046,15.469-33.74,28.879-55.637,37.343
	c-19.15,7.403-36.471-0.606-55.286,5.847c-15.878,5.445-36.997,25.63-53.479,26.172c-12.116,0.82,64.861-74.211,66.917-65.688
	c-1.825-6.943-66.999,18.412-72.11,20.443c-27.192,10.807-31.94,14.372-36.059,29.53c-8.477,31.202-31.266,36.736-56.019,38.806
	c-12.982,1.086-30.014,23.609-46.487,28.453c-23.645,6.953-42.126,40.123-55.131,59.314c-34.079,50.29-57.15,107.823-67.257,167.725
	c0.265-1.611,20.643,30.391,21.446,38.103c2.714,26.07,20.659,41.24,33.429,62.564c7.47,12.663,18.521,35.431,14.083,50.625
	c3.792-6.303,28.837,18.771,30.508,20.358c23.066,21.934,64.071,61.872,25.158,89.809c-8.058,5.797,3.663,33.154,4.849,40.145
	c3.546,20.904-5.516,14.52-18.161,22.146c-44.279,27.455,67,99.004,84.448,109.822c94.678,58.706,211.021,77.897,319.598,53.148
	C799.297,883.704,936.869,708.179,938.083,512z M447.146,240.771c7.925-3.526,12.316-7.209,16.646-13.646
	C463.24,227.972,438.926,223.799,447.146,240.771z"/>
</svg>
